<?xml version="1.0" encoding="UTF-8" standalone="no"?>
<svg
   xmlns:dc="http://purl.org/dc/elements/1.1/"
   xmlns:cc="http://creativecommons.org/ns#"
   xmlns:rdf="http://www.w3.org/1999/02/22-rdf-syntax-ns#"
   xmlns:svg="http://www.w3.org/2000/svg"
   xmlns="http://www.w3.org/2000/svg"
   xmlns:sodipodi="http://sodipodi.sourceforge.net/DTD/sodipodi-0.dtd"
   xmlns:inkscape="http://www.inkscape.org/namespaces/inkscape"
   width="2000"
   height="2000"
   viewBox="0 0 2000 2000"
   style="overflow:visible"
   xml:space="preserve"
   version="1.1"
   id="svg53"
   sodipodi:docname="fma.svg"
   inkscape:version="1.0 (4035a4fb49, 2020-05-01)"><metadata
   id="metadata59"><rdf:RDF><cc:Work
       rdf:about=""><dc:format>image/svg+xml</dc:format><dc:type
         rdf:resource="http://purl.org/dc/dcmitype/StillImage" /><dc:title></dc:title></cc:Work></rdf:RDF></metadata><defs
   id="defs57" /><sodipodi:namedview
   inkscape:document-rotation="0"
   pagecolor="#ffffff"
   bordercolor="#666666"
   borderopacity="1"
   objecttolerance="10"
   gridtolerance="10"
   guidetolerance="10"
   inkscape:pageopacity="0"
   inkscape:pageshadow="2"
   inkscape:window-width="1278"
   inkscape:window-height="1008"
   id="namedview55"
   showgrid="false"
   inkscape:zoom="0.18602314"
   inkscape:cx="528.08583"
   inkscape:cy="894.29788"
   inkscape:window-x="102"
   inkscape:window-y="18"
   inkscape:window-maximized="0"
   inkscape:current-layer="svg53" />
	<g
   transform="matrix(3.7763107,0,0,3.7763107,648.16805,479.90932)"
   style="display:inline"
   inkscape:label="Layer 3"
   id="layer3"><path
     transform="scale(0.26458333)"
     d="M -470.01367,870.61523 H -5.5371094 L 31.427734,1008.5723 351.42773,666.70117 H 529.32031 L 513.1582,563.66602 501.03516,515.17773 165.66406,214.15234 c -17.16944,29.8721 -61.08999,52.60408 -84.85156,84.85352 -54.741931,60.48921 -84.3384489,137.92454 -149.501953,202.0293 -73.809717,58.21784 -159.518377,103.41634 -226.275387,161.625 -72.75974,67.20593 -127.86169,136.17683 -173.7461,206.07031 -0.46287,0.64798 -0.84804,1.24241 -1.30273,1.88476 z"
     style="opacity:0.6;fill:#000000;stroke:#000000;stroke-width:0.999999px;stroke-linecap:butt;stroke-linejoin:miter;stroke-opacity:1"
     id="path56" /><path
     transform="scale(0.26458333)"
     d="M -531.66602,1362.0137 H 84.019531 L 191.42773,1300 77.142578,1140 31.427734,1008.5723 -5.5371094,870.61523 H -470.01367 c -51.54577,72.82032 -50.89687,109.75667 -63.34766,155.69927 -1.57255,37.6277 -0.15099,76.3787 28.28516,125.2597 4.16587,14.6117 -21.38174,48.3844 -28.28516,96.9746 l 4.04102,109.0957 c -0.70472,1.4948 -1.5828,2.9054 -2.34571,4.3692 z"
     style="opacity:0.6;fill:#000000;stroke:#000000;stroke-width:0.999999px;stroke-linecap:butt;stroke-linejoin:miter;stroke-opacity:1"
     id="path81" /><path
     transform="scale(0.26458333)"
     d="M 630,1057.1426 191.42773,1300 84.019531,1362.0137 H -531.66602 c -16.02182,30.7408 -44.19448,55.5341 -62.30273,108.7675 -14.85664,35.0187 -11.73237,70.038 0,105.0567 11.0397,18.7357 19.45073,17.899 72.73047,72.7305 59.62412,61.9559 135.82419,123.9131 210.11133,185.8691 0.1113,23.5573 6.34327,50.5143 40.40625,92.9336 53.56235,40.954 101.10564,83.1974 206.070309,113.1367 107.980656,29.8622 175.393561,19.1566 242.437501,8.082 109.65374,-10.6573 168.86265,-48.219 222.23242,-88.8945 63.77012,-44.2715 121.51051,-90.8046 125.25977,-157.584 13.08166,-57.262 8.8443,-121.4519 -16.16211,-193.9492 19.05305,11.7594 37.86327,22.3047 60.60937,52.5293 33.49644,41.5511 89.89435,70.3788 157.58399,92.9336 41.13018,14.5742 107.81185,20.6306 206.07031,16.1621 68.85254,-14.8478 128.53424,-6.1118 222.23434,-84.8535 43.8583,-41.4849 87.562,-83.2508 109.0957,-165.6641 18.774,-110.1201 2.3729,-145.9795 -12.1211,-185.8672 29.4045,-26.4893 32.8111,-63.3779 24.2422,-105.0566 58.1498,10.2187 84.4934,4.5335 113.1387,0 50.745,-16.2012 103.8908,-39.6065 169.7051,-101.0156 31.4266,-26.303 50.1488,-48.7445 62.5332,-70.1875 z m -158.57227,240 c -37.82298,50.7855 -37.65033,132.6576 -34.28515,217.1426 -28.93172,-45.0231 -75.90929,-75.8666 -131.42774,-100 72.88133,-32.7465 118.74811,-75.1403 165.71289,-117.1426 z"
     style="opacity:0.6;fill:#000000;stroke:#000000;stroke-width:0.999999px;stroke-linecap:butt;stroke-linejoin:miter;stroke-opacity:1"
     id="path79" /><path
     transform="scale(0.26458333)"
     id="path77"
     style="opacity:0.6;fill:#000000;stroke:#000000;stroke-width:0.999999px;stroke-linecap:butt;stroke-linejoin:miter;stroke-opacity:1"
     d="M 630,666.70117 H 628.57227 529.32031 351.42773 L 31.427734,1008.5723 77.142578,1140 191.42773,1300 630,1057.1426 Z" /><path
     transform="scale(0.26458333)"
     id="path52"
     style="opacity:0.6;fill:#000000;stroke:#000000;stroke-width:0.999999px;stroke-linecap:butt;stroke-linejoin:miter;stroke-opacity:1"
     d="m 630,666.70117 v 390.44143 h 992.209 c 16.5563,-28.6665 21.742,-55.541 30.4004,-87.39651 4.2833,-46.36788 3.1037,-100.01968 -4.041,-161.625 -12.619,-68.582 -30.3497,-104.11838 -64.8477,-141.41992 z m 210.44727,184.85742 c 4.10041,13.62607 9.13158,24.45531 8.08007,53.53711 -35.41152,-5.10697 -59.8855,0.724 -87.88281,3.03125 37.43437,-15.24495 58.01761,-36.10701 79.80274,-56.56836 z" /><path
     transform="scale(0.26458333)"
     d="M 513.1582,563.66602 H 662.85742 L 788.57227,314.28516 165.66406,214.15234 501.03516,515.17773 Z"
     style="opacity:0.6;fill:#000000;stroke:#000000;stroke-width:0.999999px;stroke-linecap:butt;stroke-linejoin:miter;stroke-opacity:1"
     id="path75" /><path
     transform="scale(0.26458333)"
     d="M 788.57227,-201.33008 V 314.28516 L 662.85742,563.66602 H 513.1582 l 16.16211,103.03515 h 99.25196 955.14843 c -7.3051,-7.89875 -15.0952,-15.8541 -24.0449,-24.24414 -153.4391,-145.88133 -159.9808,-145.75741 -307.086,-173.74609 -57.1425,-0.52041 -102.8535,5.49248 -133.3418,20.20312 13.5962,-23.60625 26.5417,-50.47393 36.3672,-92.93359 9.9221,-57.99571 27.8094,-82.53755 20.2032,-214.15235 -6.682,-52.42095 -18.9494,-120.152603 -99.8321,-193.705073 -74.3279,-72.026483 -159.12723,-88.330037 -223.41794,-105.300777 -34.38342,-39.86616 -38.71027,-58.50984 -63.99609,-84.15235 z"
     style="opacity:0.6;fill:#000000;stroke:#000000;stroke-width:0.999999px;stroke-linecap:butt;stroke-linejoin:miter;stroke-opacity:1"
     id="path25" /><path
     d="m 398,-461.6582 c -44.06195,-8.79636 -95.10966,-10.60625 -159.60352,1.02929 -71.23723,30.07178 -137.89374,73.88488 -193.949214,149.50196 -33.364667,50.37233 -61.161451,105.0761 -60.609375,181.82812 7.1336054,57.656207 20.5907108,122.5306208 55.138671,179.70508 43.188341,67.90522 78.313848,115.76169 126.687498,163.74609 L 788.57227,314.28516 398,-90.914062 Z"
     style="opacity:0.6;fill:#000000;stroke:#000000;stroke-width:0.999999px;stroke-linecap:butt;stroke-linejoin:miter;stroke-opacity:1"
     id="path73"
     transform="scale(0.26458333)" /><path
     d="M 398,-461.6582 V -90.914062 L 788.57227,314.28516 v -515.61524 c -0.23643,-0.23976 -0.41221,-0.46016 -0.65235,-0.70117 -49.30605,-48.31127 -102.74554,-98.00018 -185.86914,-157.58398 -100.13896,-74.32528 -141.22919,-85.91061 -181.82812,-96.97461 -7.19812,-1.89961 -14.63892,-3.55438 -22.22266,-5.06836 z"
     style="opacity:0.6;fill:#000000;stroke:#000000;stroke-width:0.999999px;stroke-linecap:butt;stroke-linejoin:miter;stroke-opacity:1"
     id="path71"
     transform="scale(0.26458333)" /></g>
<g
   inkscape:label="Layer 1"
   id="layer1"
   inkscape:groupmode="layer" /></svg>
