<?xml version="1.0" encoding="UTF-8" standalone="no"?>
<svg
   xmlns:dc="http://purl.org/dc/elements/1.1/"
   xmlns:cc="http://creativecommons.org/ns#"
   xmlns:rdf="http://www.w3.org/1999/02/22-rdf-syntax-ns#"
   xmlns:svg="http://www.w3.org/2000/svg"
   xmlns="http://www.w3.org/2000/svg"
   xmlns:sodipodi="http://sodipodi.sourceforge.net/DTD/sodipodi-0.dtd"
   xmlns:inkscape="http://www.inkscape.org/namespaces/inkscape"
   width="2000"
   height="2000"
   viewBox="0 0 2000 2000"
   style="overflow:visible"
   xml:space="preserve"
   version="1.1"
   id="svg53"
   sodipodi:docname="nz.svg"
   inkscape:version="1.0 (4035a4fb49, 2020-05-01)"><metadata
   id="metadata59"><rdf:RDF><cc:Work
       rdf:about=""><dc:format>image/svg+xml</dc:format><dc:type
         rdf:resource="http://purl.org/dc/dcmitype/StillImage" /><dc:title></dc:title></cc:Work></rdf:RDF></metadata><defs
   id="defs57" /><sodipodi:namedview
   inkscape:document-rotation="0"
   pagecolor="#ffffff"
   bordercolor="#666666"
   borderopacity="1"
   objecttolerance="10"
   gridtolerance="10"
   guidetolerance="10"
   inkscape:pageopacity="0"
   inkscape:pageshadow="2"
   inkscape:window-width="1278"
   inkscape:window-height="1008"
   id="namedview55"
   showgrid="false"
   inkscape:zoom="0.18602314"
   inkscape:cx="528.08583"
   inkscape:cy="894.29788"
   inkscape:window-x="102"
   inkscape:window-y="18"
   inkscape:window-maximized="0"
   inkscape:current-layer="svg53" />
	<g
   transform="translate(505.55647,193.85999)"
   id="Layer_1"
   class="st0">
		<path
   id="path46"
   d="m 668.939,572.576 c -7.51191,-32.49015 24.39005,-76.98872 17.68612,-67.80688 20.63366,-20.38587 -20.45356,-12.13655 8.22088,-32.08112 4.67102,3.53285 -27.95631,-46.31146 -3.851,-52.286 -16.92391,12.02274 -36.83261,-58.62735 -10.989,-14.201 8.50112,-25.62522 24.28433,-11.50299 5.962,-29.68 8.12925,-10.32649 -39.80918,21.95577 -31.74,-15.08313 -25.43915,-38.01847 -24.62336,-59.60886 -0.726,-23.94087 4.6206,9.76087 -6.64389,-20.23446 -1.11238,-27.84975 -25.17084,1.65659 3.17036,-5.36076 6.89338,-17.16225 -7.42092,8.64896 -22.87959,11.74174 -5.53088,-7.06863 -0.71141,1.06595 -12.96635,4.7825 -17.69512,-4.36737 19.41529,42.57448 -58.25716,-46.89094 -13.1035,8.80725 C 643.60989,345.10246 590.81777,257.12581 575.1,236.642 555.97194,209.98836 569.16299,200.69251 552.174,203.346 540.1382,183.36374 528.8659,178.4484 541.21887,154.84113 530.37919,121.3289 464.31057,86.313375 528.111,87.533 c -3.10801,15.66191 16.07779,43.76361 13.948,47.323 12.9858,19.70328 10.13854,17.19482 20.904,-5.005 1.43049,16.01667 3.54118,24.59078 20.328,17.227 14.09026,2.23706 52.72867,28.72479 39.509,23.81 -18.93393,-1.85574 21.6811,28.53046 8.263,16.683 -7.79261,-1.30791 9.0697,-4.70858 16.03,-9.632 -6.39989,17.49267 21.60394,29.63315 17.352,49.81525 15.43536,23.02563 -18.19822,23.26727 7.153,47.38475 19.90467,30.09956 19.99982,30.04899 15.816,41.899 -10.89708,-7.92501 -5.62463,18.33451 -0.315,21.598 -5.07609,16.61125 11.86042,39.39958 10.076,35.248 2.37169,-7.30379 9.69425,-3.74165 22.35225,0.60575 12.75227,4.48329 25.79112,50.99357 35.84875,24.93325 -12.6515,-32.69678 -5.95001,-36.98204 -5.81475,-47.29188 -0.84233,-16.36262 -20.01994,-37.60384 6.00875,-22.57812 5.39658,12.25997 2.05354,32.44362 24.074,19.977 -13.97506,27.81388 -7.07115,3.97124 5.555,27.433 -0.6213,21.17854 -2.21827,35.50546 14.852,68.072 -32.54005,-18.98627 29.79567,37.71408 -1.419,3.873 26.16579,20.00032 62.8333,31.85775 90.659,50.45 7.64765,8.90772 44.26769,-5.18554 53.933,-24.16 10.99167,-17.8088 43.03476,-30.29682 57.9659,-20.29613 33.4904,13.12767 -3.34121,43.86133 -4.1039,67.72413 0.65672,20.77348 -1.03453,40.77678 -24.654,56.234 -19.66034,-5.78706 -6.84402,58.05491 -12.867,49.398 -16.21168,28.96776 -1.77031,-35.19325 -42.805,-12.84 -47.01463,2.93921 -52.68513,51.42777 -38.58713,72.63625 -7.23068,27.6635 -23.79516,48.85245 -37.11187,72.07475 -13.65666,20.1196 -38.44895,43.376 -48.493,70.729 -13.33918,25.76782 -37.39659,44.04985 -62.474,55.759 -19.63446,9.49972 -18.61781,-33.87348 -42.36,-19.822 8.00094,-35.07743 -35.80465,15.84681 -11.445,-22.741 13.13015,-12.03457 32.16014,-41.25652 40.43,-72.712 12.91904,-28.05004 -13.30317,-82.77683 -54.517,-80.74 -17.15066,-28.6582 -103.76748,-42.8985 -52.167,-80.313 17.62498,-19.74027 47.10397,-7.14267 58.904,-37.713 z" />
		<path
   id="path48"
   d="m 390.792,1267.012 c -9.68415,-35.9864 26.77365,-86.8913 14.96687,-98.6386 15.4043,27.85 91.91401,-26.3659 38.97513,-43.0044 24.94679,19.587 36.66445,28.1183 47.748,3.11 36.81424,9.0802 -26.93621,19.907 18.772,11.228 3.73929,-4.1035 24.96909,22.1177 18.88,-8.869 -0.67845,34.1796 30.60164,-7.6806 3.675,-11.66 -11.10345,0.2658 -14.54612,-1.3148 -25.667,-1.948 21.64005,-7.0006 -12.49732,-55.7518 15.511,-59.312 41.9955,-4.7725 39.14254,-59.63067 64.3605,-78.41987 10.41307,-14.86718 29.34281,-48.60256 45.7655,-71.21313 -11.72478,-10.15416 -22.73163,-59.26154 -5.426,-47.478 22.49792,-23.6686 19.07502,-31.57043 -0.561,-8.72 -20.85367,2.29806 -25.44156,2.10054 -4.352,-5.925 8.52391,-10.6556 2.91489,-3.1683 16.049,-19.844 -7.32516,0.48573 -7.81605,3.31943 -14.463,-6.35 4.0965,10.43316 -26.16497,-5.20486 -7.37077,8.06523 2.27246,14.83304 -25.59759,3.39333 -5.62411,15.93115 21.39581,-9.05047 -38.33026,29.23653 -12.06112,-2.15338 -6.68689,-1.90605 15.15537,-18.05638 -6.08338,-9.24287 -0.0631,-11.49714 29.40887,-17.39418 13.28363,-18.95025 -19.11523,7.21586 -14.76518,19.18716 -33.78925,20.52512 -21.03775,33.25693 -54.35884,19.09393 -39.714,-27.452 -9.9166,2.5875 -58.21102,-32.16429 -12.178,-36.401 20.42751,-0.73631 -36.03777,-10.50666 -31.528,12.818 -47.01627,-3.03402 -27.48479,67.87987 -49.994,98.23013 -22.25169,29.77813 -55.17524,32.39117 -47.54,80.40487 -12.923,43.4556 -39.16496,83.87 -80.001,103.693 -21.6886,20.0957 -38.26725,50.1996 -65.732,62.141 -31.80445,14.3841 -28.70645,48.1982 -62.255,41.34 -27.9574,4.7439 -34.32508,34.5833 -45.869,46.208 -24.56359,20.2238 8.50521,36.5107 -21.362,29.383 -7.7016,10.7373 -14.67959,36.6245 -12.355,25.462 -15.895211,-17.2487 -0.17402,41.0463 -13.462,2.852 -19.919359,18.833 4.633187,20.0538 -14.55,25.578 17.26407,13.7028 -14.708986,-6.296 -1.074281,10.5964 -25.477578,-3.6083 24.239141,19.2987 -3.714719,18.8366 19.250059,35.674 -15.859884,-42.5149 -10.686,-3.967 -16.640396,20.1395 29.830616,10.5375 -9.531125,17.5706 -12.805318,31.61 42.482927,-6.0243 7.601125,14.6964 -16.059539,19.2329 28.162532,-6.2942 -4.790672,15.9105 44.789204,3.2074 -49.0936824,7.5559 -14.857828,35.0716 12.836537,-2.4292 11.264974,-28.3747 15.64375,-7.2492 -1.924036,-3.3319 -15.113042,30.2122 5.87575,1.7531 21.540578,-17.7318 -33.711269,39.7478 12.378,25.289 28.67588,11.0352 60.8699,-32.6919 60.781,7.8229 27.94774,2.2739 47.30919,6.5673 48.145,8.8551 2.88209,-7.2837 0.42664,19.0516 18.214,3.603 2.09006,9.226 19.55387,-4.0263 27.533,15.988 22.71872,0.2666 31.39254,-10.9158 52.183,-10.599 12.6899,-22.9717 38.03002,-43.4518 54.7,-75.707 47.66644,-11.472 23.34194,-14.0651 19.442,-13.903 -1.03918,-10.0706 3.94766,-24.0388 13.376,-42.553 3.34846,-18.1841 5.83883,-38.1025 22.733,-53.403 z" />
		<path
   id="path50"
   d="m 146.798,1474.963 c -8.17276,20.636 -1.77746,33.4095 -16.946,53.863 -5.8202,21.1323 13.06498,-7.364 29.315,-6.777 30.36861,-5.9878 20.23798,-18.4577 5.034,-24.364 -15.96859,3.1839 24.71555,-5.4814 -7.366,-24.18 -2.55527,-2.7902 -9.02617,-3.0221 -10.037,1.458 z" />
    </g>
<g
   inkscape:label="Layer 1"
   id="layer1"
   inkscape:groupmode="layer" /></svg>
